<svg xmlns="http://www.w3.org/2000/svg" width="160" height="160" fill="none" viewBox="0 0 160 160"><path fill="#262A33" d="m28.337 68.384 104.52 7.608c4.624.336 8.12 4.36 7.808 8.992l-.488 7.184a8.34 8.34 0 0 1-8.944 7.768l-104.52-7.608c-4.624-.336-8.12-4.36-7.808-8.992l.488-7.184a8.345 8.345 0 0 1 8.944-7.768Z"/><path fill="#BDBEC2" fill-rule="evenodd" d="M32.57 75.464a2.118 2.118 0 0 0-2.993-.216l-3.992 3.464a2.117 2.117 0 0 0-.2 2.992l3.48 4.008a2.118 2.118 0 0 0 2.992.216l3.992-3.464c.88-.768.976-2.104.2-2.992l-3.48-4.008Zm1.015 3.632a.529.529 0 0 1-.048.744l-3.384 2.944a.523.523 0 0 1-.744-.056l-1.48-1.704a.529.529 0 0 1 .048-.744.523.523 0 0 1 .744.056l1.128 1.304 2.984-2.592a.523.523 0 0 1 .744.056l.008-.008Z" clip-rule="evenodd"/><path fill="#595D66" d="M132.049 87.968a2.784 2.784 0 0 1-2.984 2.592l-53.496-3.896a2.816 2.816 0 0 1-2.6-3 2.784 2.784 0 0 1 2.984-2.592l53.496 3.896a2.816 2.816 0 0 1 2.6 3ZM69.777 83.432a2.784 2.784 0 0 1-2.984 2.592L46.05 84.512a2.816 2.816 0 0 1-2.6-3 2.784 2.784 0 0 1 2.984-2.592l20.744 1.512a2.815 2.815 0 0 1 2.6 3Z"/><path fill="#303540" d="M131.857 101.16c-.232 0-.472-.008-.712-.024L26.625 93.52c-5.28-.384-9.28-4.992-8.92-10.272l.488-7.184a9.531 9.531 0 0 1 3.264-6.576 9.52 9.52 0 0 1 6.968-2.312l104.52 7.608c5.272.384 9.28 4.992 8.92 10.272l-.488 7.184a9.497 9.497 0 0 1-3.264 6.568 9.504 9.504 0 0 1-6.256 2.344v.008ZM27.721 69.56a7.108 7.108 0 0 0-4.68 1.752 7.106 7.106 0 0 0-2.448 4.92l-.488 7.184c-.272 3.968 2.736 7.424 6.696 7.712l104.52 7.608A7.095 7.095 0 0 0 136.537 97a7.138 7.138 0 0 0 2.448-4.92l.488-7.184c.272-3.96-2.736-7.424-6.696-7.712l-104.52-7.608c-.176-.016-.36-.016-.536-.016Z"/><path fill="#595D66" fill-rule="evenodd" d="M17.354 76.008c.416-5.728 5.4-10.032 11.128-9.616L133 74c5.728.416 10.032 5.4 9.616 11.128l-.52 7.184c-.416 5.728-5.4 10.032-11.128 9.616l-104.52-7.616c-5.728-.416-10.032-5.4-9.616-11.128l.52-7.184v.008Zm11.008-8.024c-4.848-.352-9.064 3.288-9.416 8.136l-.52 7.184c-.352 4.848 3.288 9.064 8.136 9.416l104.519 7.608c4.848.352 9.064-3.288 9.416-8.136l.52-7.184c.352-4.848-3.288-9.064-8.136-9.416l-104.52-7.608Z" clip-rule="evenodd"/><path fill="#262A33" d="m26.897 37.4 104.72-4.096c4.632-.184 8.56 3.432 8.76 8.064l.32 7.192a8.359 8.359 0 0 1-8.024 8.72l-104.72 4.104c-4.632.184-8.56-3.432-8.76-8.064l-.32-7.192a8.359 8.359 0 0 1 8.024-8.72V37.4Z"/><path fill="#BDBEC2" fill-rule="evenodd" d="M30.857 54.592a5.3 5.3 0 0 0 5.096-5.536 5.367 5.367 0 0 0-5.56-5.12 5.3 5.3 0 0 0-5.096 5.536c.128 2.944 2.624 5.232 5.56 5.12Zm2.496-6.392a.532.532 0 1 0-.784-.72l-2.696 2.928-1.272-1.176a.532.532 0 1 0-.72.784l1.672 1.536c.216.2.552.184.752-.032l3.056-3.32h-.008Z" clip-rule="evenodd"/><path fill="#595D66" d="M132.145 45.296a2.775 2.775 0 0 1-2.672 2.904l-20.784.816a2.812 2.812 0 0 1-2.92-2.688 2.775 2.775 0 0 1 2.672-2.904l20.784-.816a2.812 2.812 0 0 1 2.92 2.688ZM102.569 46.448a2.775 2.775 0 0 1-2.672 2.904l-53.6 2.096a2.812 2.812 0 0 1-2.92-2.688 2.78 2.78 0 0 1 2.672-2.904l53.6-2.096a2.812 2.812 0 0 1 2.92 2.688Z"/><path fill="#303540" d="M27.617 62.584c-5.12 0-9.4-4.056-9.624-9.216l-.32-7.192a9.5 9.5 0 0 1 2.512-6.896 9.528 9.528 0 0 1 6.664-3.08l104.72-4.096c5.304-.2 9.776 3.928 10.008 9.208l.32 7.192a9.521 9.521 0 0 1-2.512 6.896 9.528 9.528 0 0 1-6.664 3.08l-104.72 4.096h-.384v.008ZM26.945 38.6a7.11 7.11 0 0 0-4.992 2.304 7.108 7.108 0 0 0-1.88 5.168l.32 7.192c.176 3.968 3.544 7.088 7.52 6.92l104.72-4.096a7.11 7.11 0 0 0 4.992-2.304 7.108 7.108 0 0 0 1.88-5.168l-.32-7.192c-.176-3.968-3.544-7.08-7.52-6.92L26.945 38.6Z"/><path fill="#595D66" fill-rule="evenodd" d="M16.833 46.208c-.224-5.736 4.248-10.576 9.984-10.8l104.72-4.096c5.744-.224 10.576 4.248 10.8 9.984l.28 7.192c.224 5.736-4.248 10.576-9.984 10.8l-104.72 4.096c-5.736.224-10.576-4.248-10.8-9.984l-.28-7.192Zm10.048-9.2c-4.856.192-8.64 4.28-8.448 9.136l.28 7.192c.192 4.856 4.28 8.64 9.136 8.448l104.72-4.096c4.856-.192 8.64-4.28 8.448-9.136l-.28-7.192c-.192-4.856-4.28-8.64-9.136-8.448l-104.72 4.096Z" clip-rule="evenodd"/><path fill="#262A33" d="m26.545 114.752 104.472-8.304c4.624-.368 8.688 3.08 9.08 7.704l.608 7.176a8.339 8.339 0 0 1-7.664 9.032l-104.472 8.304c-4.624.368-8.688-3.08-9.08-7.704l-.608-7.176a8.339 8.339 0 0 1 7.664-9.032Z"/><path fill="#BDBEC2" fill-rule="evenodd" d="M31.193 131.768a5.308 5.308 0 0 0 4.872-5.736 5.371 5.371 0 0 0-5.768-4.896 5.308 5.308 0 0 0-4.872 5.736 5.371 5.371 0 0 0 5.768 4.896Zm2.24-6.488a.533.533 0 0 0-.064-.752.533.533 0 0 0-.752.056l-2.576 3.04-1.32-1.12a.533.533 0 0 0-.752.056.533.533 0 0 0 .064.752l1.728 1.472c.224.192.56.168.752-.056l2.92-3.44v-.008Z" clip-rule="evenodd"/><path fill="#595D66" d="M132.025 118.408a2.779 2.779 0 0 1-2.552 3.008l-53.472 4.248a2.81 2.81 0 0 1-3.024-2.568 2.779 2.779 0 0 1 2.552-3.008l53.472-4.248a2.816 2.816 0 0 1 3.024 2.568ZM69.777 123.352a2.779 2.779 0 0 1-2.552 3.008l-20.736 1.648a2.81 2.81 0 0 1-3.024-2.568 2.779 2.779 0 0 1 2.552-3.008l20.736-1.648a2.81 2.81 0 0 1 3.024 2.568Z"/><path fill="#303540" d="M27.89 139.896c-4.953 0-9.185-3.816-9.6-8.832l-.609-7.176a9.492 9.492 0 0 1 2.232-6.992 9.515 9.515 0 0 1 6.536-3.344l104.472-8.304c5.28-.416 9.928 3.528 10.368 8.8l.608 7.176a9.492 9.492 0 0 1-2.232 6.992 9.515 9.515 0 0 1-6.536 3.344l-104.472 8.304a8.218 8.218 0 0 1-.768.032Zm-1.249-23.944a7.099 7.099 0 0 0-4.896 2.504 7.125 7.125 0 0 0-1.672 5.24l.608 7.176c.336 3.96 3.832 6.92 7.792 6.608l104.472-8.304a7.099 7.099 0 0 0 4.896-2.504 7.125 7.125 0 0 0 1.672-5.24l-.608-7.176c-.336-3.96-3.832-6.912-7.792-6.608l-104.472 8.304Z"/><path fill="#595D66" fill-rule="evenodd" d="M16.833 123.952c-.456-5.728 3.816-10.736 9.544-11.192l104.472-8.304c5.728-.456 10.736 3.816 11.192 9.544l.568 7.176c.456 5.728-3.816 10.736-9.544 11.192l-104.472 8.304c-5.728.456-10.736-3.816-11.192-9.544l-.568-7.176Zm9.672-9.6a8.79 8.79 0 0 0-8.072 9.472l.568 7.176c.384 4.848 4.624 8.456 9.472 8.072l104.472-8.304a8.79 8.79 0 0 0 8.072-9.472l-.568-7.176a8.79 8.79 0 0 0-9.472-8.072l-104.472 8.304Z" clip-rule="evenodd"/><path fill="#BDBEC2" d="m34.017 20.08 15.648-2.68-8.712 13.376-.896-7.128-6.032-3.56-.008-.008Z"/><path fill="#595D66" fill-rule="evenodd" d="M93.369 106.016c8.24-6.528 10.672-18.28 5.256-27.656-5.952-10.312-19.136-13.84-29.44-7.888-10.312 5.952-13.84 19.136-7.888 29.44 5.416 9.376 16.808 13.144 26.584 9.272l4.992 8.648 5.488-3.168-4.992-8.648Zm.864-25.12c4.552 7.88 1.848 17.96-6.032 22.512s-17.96 1.848-22.512-6.032-1.848-17.96 6.032-22.512 17.96-1.848 22.512 6.032Z" clip-rule="evenodd"/><g opacity=".65"><path fill="#2A2E34" d="M94.241 80.896c4.552 7.88 1.848 17.96-6.032 22.512s-17.96 1.848-22.512-6.032-1.848-17.96 6.032-22.512 17.96-1.848 22.512 6.032Z" opacity=".6"/></g><g opacity=".65"><path fill="#000" fill-opacity=".875" fill-rule="evenodd" d="M87.409 102.024c7.12-4.112 9.56-13.208 5.448-20.328-4.112-7.12-13.208-9.56-20.328-5.448-7.12 4.112-9.56 13.208-5.448 20.328 4.112 7.12 13.208 9.552 20.328 5.448Zm.8 1.384c7.88-4.552 10.584-14.632 6.032-22.512-4.552-7.88-14.632-10.584-22.512-6.032-7.88 4.552-10.584 14.632-6.032 22.512 4.552 7.88 14.632 10.584 22.512 6.032Z" clip-rule="evenodd" opacity=".11"/></g><path fill="#262A33" d="M89.337 117.488a4.805 4.805 0 0 1 1.848-6.4l2.304-1.328a4.804 4.804 0 0 1 6.464 1.6l12.696 20.184a4.799 4.799 0 0 1-1.664 6.712l-3.872 2.232a4.798 4.798 0 0 1-6.648-1.92L89.329 117.48l.008.008Z"/><path fill="#303540" fill-rule="evenodd" d="m95.09 112.528-2.305 1.328a1.605 1.605 0 0 0-.616 2.136l11.136 21.088a1.609 1.609 0 0 0 2.216.64l3.872-2.232a1.6 1.6 0 0 0 .552-2.24l-12.696-20.184a1.603 1.603 0 0 0-2.152-.536h-.008Zm-3.905-1.44a4.81 4.81 0 0 0-1.848 6.4l11.136 21.088a4.805 4.805 0 0 0 6.648 1.92l3.872-2.232a4.799 4.799 0 0 0 1.664-6.712l-12.696-20.184a4.804 4.804 0 0 0-6.464-1.6l-2.304 1.328-.008-.008Z" clip-rule="evenodd"/><path fill="#7B7E85" fill-rule="evenodd" d="m90.921 111.256-1.312-2.272c-.6-1.04-1.848-1.44-2.92-1.064-8.912 3.2-19.104-.328-24.008-8.808-5.512-9.544-2.24-21.744 7.304-27.256 9.544-5.512 21.744-2.24 27.256 7.304 4.896 8.488 2.856 19.08-4.376 25.2-.864.736-1.144 2.016-.544 3.056l1.312 2.272a4.852 4.852 0 0 1 1.552-.512l-1.472-2.552a.814.814 0 0 1 .192-1.032c7.808-6.608 10.016-18.048 4.728-27.216-5.952-10.312-19.136-13.84-29.44-7.888-10.312 5.952-13.84 19.136-7.888 29.44 5.296 9.168 16.312 12.976 25.936 9.52a.818.818 0 0 1 .992.352l1.504 2.608c.32-.432.72-.816 1.192-1.136l-.008-.016Z" clip-rule="evenodd"/><path fill="#595D66" fill-rule="evenodd" d="m94.29 111.144-2.305 1.328a3.203 3.203 0 0 0-1.232 4.264l11.136 21.088a3.203 3.203 0 0 0 4.432 1.28l3.872-2.232a3.198 3.198 0 0 0 1.104-4.472l-12.696-20.184a3.197 3.197 0 0 0-4.312-1.064v-.008Zm-3.105-.056a4.808 4.808 0 0 0-1.848 6.4l11.136 21.088a4.805 4.805 0 0 0 6.648 1.92l3.872-2.232a4.799 4.799 0 0 0 1.664-6.712l-12.696-20.184a4.804 4.804 0 0 0-6.464-1.6l-2.304 1.328-.008-.008Z" clip-rule="evenodd"/></svg>