<svg xmlns="http://www.w3.org/2000/svg" viewBox="0 0 216 216"><defs><style>.cls-1{fill:#ffcb4b;}</style></defs><g id="Layer_2" data-name="Layer 2"><g id="Layer_1-2" data-name="Layer 1"><circle class="cls-1" cx="108" cy="108" r="108"/><path d="M175.43,114.44a67.48,67.48,0,0,1-134.86,0A5,5,0,0,1,42,110.82,4.9,4.9,0,0,1,50.37,114a57.67,57.67,0,0,0,115.26,0,4.9,4.9,0,0,1,8.42-3.18A5,5,0,0,1,175.43,114.44Z"/><path d="M68.1,85.27,58.48,53.66H69.33l4.58,19.18,4.5-19.18H88.58L79.37,85.47v19H68.1Z"/><path d="M137,85.27l-9.62-31.61h10.85l4.58,19.18,4.5-19.18h10.17l-9.21,31.81v19H137Z"/></g></g></svg>